<?xml version="1.0" encoding="utf-8"?>
<!-- Generator: Adobe Illustrator 27.3.1, SVG Export Plug-In . SVG Version: 6.00 Build 0)  -->
<svg version="1.1" id="レイヤー_1" xmlns="http://www.w3.org/2000/svg" xmlns:xlink="http://www.w3.org/1999/xlink" x="0px"
	 y="0px" viewBox="0 0 122.82 36.62" style="enable-background:new 0 0 122.82 36.62;" xml:space="preserve">
<style type="text/css">
	.st0{fill:none;stroke:#000000;stroke-width:0.25;stroke-miterlimit:10;}
	.st1{fill:none;stroke:#000000;stroke-miterlimit:10;}
	.st2{font-family:'STYuanti-SC-Regular';}
	.st3{font-size:19px;}
	.st4{letter-spacing:6;}
	.st5{font-family:'TsukuBRdGothic-Regular-83pv-RKSJ-H';}
	.st6{font-size:9px;}
	.st7{letter-spacing:1.34;}
	.st8{fill:none;}
</style>
<g>
	<path class="st0" d="M116.14,6.8c-1.52,0.58-1.84,1.04-2.25,3.21c-0.4-2.17-0.73-2.64-2.25-3.21c1.52-0.58,1.84-1.04,2.25-3.21
		C114.29,5.76,114.62,6.22,116.14,6.8z"/>
</g>
<g>
	<path class="st1" d="M112.54,12.18c-1.08,0.02-2.05,0.92-2.78,1.29c-0.76-0.4-1.62-1.31-2.76-1.29c-5.65,0.09-6.34,5.76-4.92,9.38
		c0.79,2.02,2.29,8.02,4.92,8c1.1-0.01,2.02-0.76,2.76-2.16c0.74,1.41,1.66,2.16,2.78,2.16c2.59-0.02,4.13-5.97,4.92-8
		C118.82,18.07,118.25,12.09,112.54,12.18z"/>
	<g>
		<path class="st0" d="M109.77,19.16c-1.52,0.58-1.84,1.04-2.25,3.21c-0.4-2.17-0.73-2.64-2.25-3.21c1.52-0.58,1.84-1.04,2.25-3.21
			C107.93,18.12,108.26,18.58,109.77,19.16z"/>
	</g>
	<g>
		<path class="st0" d="M122.2,12.17c-1.52,0.58-1.84,1.04-2.25,3.21c-0.4-2.17-0.73-2.64-2.25-3.21c1.52-0.58,1.84-1.04,2.25-3.21
			C120.36,11.13,120.68,11.6,122.2,12.17z"/>
	</g>
	<text transform="matrix(1 0 0 1 5.0022 19.1645)" class="st2 st3 st4">佐藤歯科</text>
</g>
<text transform="matrix(0.7475 0 0 1 5.8399 32.5792)" class="st5 st6 st7">SATO DENTAL CLINIC</text>
<rect x="-15.59" y="-1.55" class="st8" width="131.37" height="36.08"/>
</svg>
