<?xml version="1.0" encoding="utf-8"?>
<!-- Generator: Adobe Illustrator 27.3.1, SVG Export Plug-In . SVG Version: 6.00 Build 0)  -->
<svg version="1.1" id="レイヤー_1" xmlns="http://www.w3.org/2000/svg" xmlns:xlink="http://www.w3.org/1999/xlink" x="0px"
	 y="0px" viewBox="0 0 368.5 85.04" style="enable-background:new 0 0 368.5 85.04;" xml:space="preserve">
<style type="text/css">
	.st0{fill:#E0AA64;stroke:#E7AE65;stroke-miterlimit:10;}
	.st1{fill:#FFFFFF;}
	.st2{font-family:'KozGoPr6N-Regular-83pv-RKSJ-H';}
	.st3{font-size:33px;}
	.st4{letter-spacing:2;}
	.st5{fill:#E0AA64;stroke:#FFFFFF;stroke-miterlimit:10;}
</style>
<rect y="0" class="st0" width="368.5" height="85.04"/>
<text transform="matrix(1 0 0 1 84.839 53.7236)" class="st1 st2 st3 st4">ご予約はこちら</text>
<g>
	<rect x="35.66" y="25.97" class="st5" width="39.95" height="33.1"/>
	<rect x="35.66" y="26.33" class="st1" width="39.95" height="9.81"/>
	<rect x="50.44" y="38.68" class="st1" width="3.7" height="3.84"/>
	<rect x="56.81" y="38.68" class="st1" width="3.7" height="3.84"/>
	<rect x="63.18" y="38.68" class="st1" width="3.7" height="3.84"/>
	<rect x="69.95" y="38.68" class="st1" width="3.7" height="3.84"/>
	<rect x="50.34" y="45.05" class="st1" width="3.7" height="3.84"/>
	<rect x="56.71" y="45.05" class="st1" width="3.7" height="3.84"/>
	<rect x="63.08" y="45.05" class="st1" width="3.7" height="3.84"/>
	<rect x="69.84" y="45.05" class="st1" width="3.7" height="3.84"/>
	<rect x="44.05" y="51.43" class="st1" width="3.7" height="3.84"/>
	<rect x="50.43" y="51.43" class="st1" width="3.7" height="3.84"/>
	<rect x="56.8" y="51.43" class="st1" width="3.7" height="3.84"/>
	<rect x="63.56" y="51.43" class="st1" width="3.7" height="3.84"/>
	<rect x="44.05" y="45.05" class="st1" width="3.7" height="3.84"/>
	<rect x="37.62" y="51.43" class="st1" width="3.7" height="3.84"/>
	<rect x="37.62" y="45.05" class="st1" width="3.7" height="3.84"/>
</g>
</svg>
